HIERARCHY
ROOT Hips
{
 OFFSET 0.000000 0.000000 0.000000
 CHANNELS 6 Xposition Yposition Zposition Yrotation Xrotation Zrotation
 JOINT Chest
 {
  OFFSET 0.000000 9.585900 0.002600
  CHANNELS 3 Yrotation Xrotation Zrotation
  JOINT Chest2
  {
   OFFSET 0.000000 9.601200 -0.005300
   CHANNELS 3 Yrotation Xrotation Zrotation
   JOINT Chest3
   {
    OFFSET 0.000000 9.561800 0.000000
    CHANNELS 3 Yrotation Xrotation Zrotation
    JOINT Chest4
    {
     OFFSET 0.000000 9.552100 0.000000
     CHANNELS 3 Yrotation Xrotation Zrotation
     JOINT Neck
     {
      OFFSET 0.000000 14.453000 0.000000
      CHANNELS 3 Yrotation Xrotation Zrotation
      JOINT Head
      {
       OFFSET 0.000000 8.936500 -0.011300
       CHANNELS 3 Yrotation Xrotation Zrotation
       End Site
       {
        OFFSET 0.000000 17.073600 -0.006000
       }
      }
     }
     JOINT RightCollar
     {
      OFFSET -2.921100 9.558500 0.000000
      CHANNELS 3 Yrotation Xrotation Zrotation
      JOINT RightShoulder
      {
       OFFSET -13.519700 0.000000 0.000000
       CHANNELS 3 Yrotation Xrotation Zrotation
       JOINT RightElbow
       {
        OFFSET 0.000000 -29.696600 0.000000
        CHANNELS 3 Yrotation Xrotation Zrotation
        JOINT RightWrist
        {
         OFFSET 0.000000 -24.004700 0.000000
         CHANNELS 3 Yrotation Xrotation Zrotation
         End Site
         {
          OFFSET 0.000000 -17.728500 0.000000
         }
        }
       }
      }
     }
     JOINT LeftCollar
     {
      OFFSET 2.921100 9.558500 0.000000
      CHANNELS 3 Yrotation Xrotation Zrotation
      JOINT LeftShoulder
      {
       OFFSET 13.519700 0.000000 0.000000
       CHANNELS 3 Yrotation Xrotation Zrotation
       JOINT LeftElbow
       {
        OFFSET 0.000000 -29.696600 0.000000
        CHANNELS 3 Yrotation Xrotation Zrotation
        JOINT LeftWrist
        {
         OFFSET 0.000000 -24.004700 0.000000
         CHANNELS 3 Yrotation Xrotation Zrotation
         End Site
         {
          OFFSET 0.000000 -17.728500 0.000000
         }
        }
       }
      }
     }
    }
   }
  }
 }
 JOINT RightHip
 {
  OFFSET -7.771700 -0.012900 -0.001300
  CHANNELS 3 Yrotation Xrotation Zrotation
  JOINT RightKnee
  {
   OFFSET 0.000000 -40.869800 0.001200
   CHANNELS 3 Yrotation Xrotation Zrotation
   JOINT RightAnkle
   {
    OFFSET 0.000000 -39.717900 0.002100
    CHANNELS 3 Yrotation Xrotation Zrotation
    JOINT RightToe
    {
     OFFSET 0.000000 -4.965400 11.033500
     CHANNELS 3 Yrotation Xrotation Zrotation
     End Site
     {
      OFFSET 0.000000 -1.423100 5.872300
     }
    }
   }
  }
 }
 JOINT LeftHip
 {
  OFFSET 7.771700 -0.012900 -0.001300
  CHANNELS 3 Yrotation Xrotation Zrotation
  JOINT LeftKnee
  {
   OFFSET 0.000000 -40.869800 0.001200
   CHANNELS 3 Yrotation Xrotation Zrotation
   JOINT LeftAnkle
   {
    OFFSET 0.000000 -39.717900 0.002100
    CHANNELS 3 Yrotation Xrotation Zrotation
    JOINT LeftToe
    {
     OFFSET 0.000000 -4.965400 11.033500
     CHANNELS 3 Yrotation Xrotation Zrotation
     End Site
     {
      OFFSET 0.000000 -1.423100 5.872300
     }
    }
   }
  }
 }
}
MOTION
Frames: 8
Frame Time: 0.008333
-17.064551 52.819691 10.468158 -177.955693 -20.215417 -1.598801 0.364885 15.654917 0.102660 0.021353 1.497308 0.004855 0.065953 2.505520 0.005782 0.313598 13.920826 0.070688 -2.156304 18.129016 -2.640711 -1.681177 -6.592388 -2.304285 -1.143764 -0.160985 2.553107 1.327252 -8.546386 -5.167179 -93.172415 -79.675535 124.461659 -0.146699 7.664867 -2.933475 -4.871711 -0.376812 0.831106 5.208784 -4.688809 8.244598 71.223040 -64.600782 -106.356015 1.561085 -6.899822 10.984529 1.724812 -58.181532 10.527594 -173.220737 85.997855 -174.811466 -12.976097 -22.881304 13.299844 0.003546 -0.046780 -0.067988 4.279260 -57.262882 -3.935274 120.601764 77.504267 118.792349 -6.206639 -19.142556 -1.817199 0.013542 -0.019718 -0.027468
-17.061837 52.818389 10.464526 -177.972506 -20.212491 -1.621734 0.373787 15.655942 0.128790 0.031914 1.493816 0.004853 0.053627 2.508287 0.008785 0.300790 13.923229 0.083208 -2.182533 18.221736 -2.666026 -1.689983 -6.518234 -2.329857 -1.124585 -0.157139 2.526079 1.334911 -8.500310 -5.169943 -93.179838 -79.647931 124.518166 -0.121381 7.623584 -2.884441 -4.877845 -0.401935 0.810625 5.188396 -4.701149 8.254815 71.239000 -64.598170 -106.499371 1.571736 -6.886282 10.884766 1.720555 -58.189011 10.600125 -172.593189 86.007235 -174.120411 -13.241479 -22.837460 13.330182 -0.012280 -0.035543 -0.049246 4.249353 -57.269356 -3.885084 120.626656 77.497240 118.829157 -6.218609 -19.148304 -1.830839 0.032716 -0.017248 -0.008690
-17.061759 52.817313 10.461052 -177.977320 -20.211879 -1.631356 0.368535 15.661272 0.137541 0.031774 1.494037 0.005373 0.045173 2.516118 0.009111 0.314201 13.912380 0.083999 -2.187914 18.242769 -2.672504 -1.705616 -6.447887 -2.337689 -1.130660 -0.149513 2.515851 1.337387 -8.489459 -5.160882 -93.044049 -79.644952 124.425422 -0.096821 7.579282 -2.850117 -4.888662 -0.414163 0.806998 4.999361 -4.771486 8.316923 71.273734 -64.538856 -106.499009 1.582262 -6.869753 10.778634 1.723089 -58.190418 10.603605 -172.593221 86.008943 -174.110929 -13.175712 -22.829092 13.314015 -0.010822 -0.042223 -0.044976 4.235067 -57.273221 -3.866710 120.657450 77.485546 118.867669 -6.218066 -19.156546 -1.838422 0.033645 -0.016754 -0.004885
-17.062595 52.816122 10.458893 -177.972937 -20.206831 -1.636506 0.356838 15.668049 0.136860 0.030720 1.489564 0.005992 0.049555 2.516708 0.011360 0.301677 13.914080 0.083834 -2.183330 18.257086 -2.678954 -1.702324 -6.449479 -2.340131 -1.150729 -0.131412 2.513661 1.368831 -8.505363 -5.160825 -93.036826 -79.651138 124.432814 -0.094229 7.564204 -2.837079 -4.891947 -0.432898 0.804515 4.874008 -4.809944 8.366854 71.315658 -64.499501 -106.562009 1.590570 -6.849036 10.677097 1.722756 -58.192356 10.575921 -172.980345 86.007311 -174.524708 -12.904931 -22.844586 13.269987 -0.001809 -0.055148 -0.048203 4.230881 -57.278494 -3.869825 120.644025 77.479367 118.858092 -6.211956 -19.159759 -1.838217 0.028999 -0.011906 -0.004002
-17.065023 52.814863 10.457905 -177.964242 -20.199033 -1.631429 0.341130 15.666098 0.128101 0.035430 1.491006 0.004937 0.045717 2.515550 0.013067 0.301297 13.918347 0.087781 -2.194042 18.292016 -2.682521 -1.729842 -6.352211 -2.333334 -1.166557 -0.123685 2.509941 1.380796 -8.513215 -5.158838 -92.901842 -79.658190 124.313375 -0.073762 7.505906 -2.773055 -4.962111 -0.474051 0.803990 4.839897 -4.811445 8.412143 71.353458 -64.466417 -106.652686 1.601123 -6.828499 10.590249 1.736432 -58.196058 10.529414 -173.338452 86.010237 -174.912119 -12.641906 -22.861030 13.227175 0.006105 -0.061413 -0.048377 4.238107 -57.284385 -3.889116 120.633333 77.475800 118.848275 -6.198127 -19.162770 -1.834403 0.016730 -0.006909 -0.008663
-17.065112 52.814227 10.456307 -177.962293 -20.199643 -1.636296 0.331671 15.673892 0.131546 0.037500 1.489653 0.005399 0.050157 2.511701 0.011700 0.272917 13.944961 0.099419 -2.197203 18.328246 -2.689461 -1.733639 -6.323593 -2.333123 -1.155862 -0.131173 2.491894 1.354686 -8.503615 -5.135537 -92.968736 -79.666178 124.419461 -0.059754 7.472922 -2.723688 -4.943292 -0.508492 0.787917 4.751218 -4.838298 8.464097 71.384520 -64.428355 -106.738569 1.615990 -6.817370 10.521634 1.742549 -58.193997 10.524224 -173.414638 86.013153 -174.993459 -12.512349 -22.868204 13.199212 0.007308 -0.057594 -0.041832 4.236866 -57.286380 -3.883661 120.652851 77.473999 118.868782 -6.198126 -19.162498 -1.829429 0.016169 -0.007751 -0.008629
-17.065801 52.813683 10.455252 -177.960118 -20.201378 -1.635976 0.320993 15.682149 0.128189 0.036450 1.490971 0.007664 0.048632 2.514004 0.012150 0.275002 13.943332 0.098122 -2.200825 18.341856 -2.687900 -1.745038 -6.273015 -2.319375 -1.157397 -0.128186 2.488150 1.335242 -8.498240 -5.118292 -92.953057 -79.662473 124.417983 -0.092780 7.426480 -2.665438 -4.968151 -0.528989 0.795091 4.693618 -4.855005 8.513117 71.401929 -64.384741 -106.812605 1.632269 -6.823433 10.472169 1.772710 -58.194616 10.530636 -173.029830 86.014869 -174.588348 -12.610608 -22.853554 13.216248 0.002202 -0.042862 -0.026534 4.237874 -57.285073 -3.884642 120.654902 77.473229 118.863861 -6.194196 -19.160293 -1.823019 0.008913 -0.008352 -0.008650
-17.065705 52.813296 10.454458 -177.958829 -20.205273 -1.638815 0.310386 15.692599 0.128261 0.039610 1.492574 0.006894 0.040545 2.522958 0.013642 0.283070 13.935242 0.098249 -2.210219 18.376247 -2.678561 -1.750647 -6.247117 -2.312944 -1.160103 -0.125243 2.485154 1.309293 -8.492068 -5.097984 -92.915406 -79.650656 124.392875 -0.112829 7.398084 -2.657956 -4.999403 -0.547154 0.805787 4.653430 -4.872904 8.565397 71.400296 -64.334597 -106.873995 1.649802 -6.849342 10.445695 1.778303 -58.191540 10.537500 -172.989905 86.017337 -174.547878 -12.609966 -22.844875 13.214881 0.000282 -0.039059 -0.019182 4.244160 -57.282952 -3.887096 120.670857 77.477264 118.882753 -6.190681 -19.154782 -1.820898 0.007824 -0.011178 -0.005437
